<svg xmlns="http://www.w3.org/2000/svg" viewBox="0 0 584.39 199.29"><defs><style>.cls-1,.cls-2{fill:#fff;}.cls-2{fill-rule:evenodd;}</style></defs><g id="Capizzi"><path class="cls-1" d="M254.32,132.9a28.81,28.81,0,0,1,11.27-11.4A32.66,32.66,0,0,1,282,117.41q11.22,0,19.22,5.93a28.42,28.42,0,0,1,10.68,16.16H295a13.7,13.7,0,0,0-5.34-6,15,15,0,0,0-7.86-2.07,14.7,14.7,0,0,0-11.5,4.94q-4.4,4.94-4.4,13.2t4.4,13.2a14.66,14.66,0,0,0,11.5,4.94,15,15,0,0,0,7.86-2.06,13.67,13.67,0,0,0,5.34-6h16.88a28.19,28.19,0,0,1-10.68,16.12q-8,5.88-19.22,5.88a32.75,32.75,0,0,1-16.39-4.08,29,29,0,0,1-11.27-11.36,36.29,36.29,0,0,1,0-33.28Z" transform="translate(-0.96 -9.33)"/><path class="cls-1" d="M322.8,142.47a21.71,21.71,0,0,1,7.94-9A20.75,20.75,0,0,1,342,130.34a19.29,19.29,0,0,1,9.3,2.16,15.91,15.91,0,0,1,6.15,5.66v-7.1h15.35v50.12H357.42v-7.1a16.62,16.62,0,0,1-6.24,5.66,19.29,19.29,0,0,1-9.3,2.15,20.45,20.45,0,0,1-11.14-3.18,22,22,0,0,1-7.94-9.08,33,33,0,0,1,0-27.16Zm31.43,4.58a10.81,10.81,0,0,0-15.54-.05q-3.18,3.28-3.19,9t3.19,9.11a10.7,10.7,0,0,0,15.54.05q3.18-3.31,3.19-9.07T354.23,147.05Z" transform="translate(-0.96 -9.33)"/><path class="cls-1" d="M407.08,132.5a19,19,0,0,1,9.25-2.16,20.75,20.75,0,0,1,11.23,3.15,21.8,21.8,0,0,1,7.95,9,33.14,33.14,0,0,1,0,27.16,22.09,22.09,0,0,1-7.95,9.08,20.6,20.6,0,0,1-11.23,3.18,19,19,0,0,1-9.2-2.15,16.87,16.87,0,0,1-6.25-5.57v30.9H385.53v-74h15.35v7.1A16.73,16.73,0,0,1,407.08,132.5ZM419.61,147a10.56,10.56,0,0,0-7.86-3.27,10.35,10.35,0,0,0-7.77,3.32q-3.18,3.31-3.19,9.07t3.19,9.07a10.76,10.76,0,0,0,15.59-.05q3.23-3.36,3.23-9.11T419.61,147Z" transform="translate(-0.96 -9.33)"/><path class="cls-1" d="M449.25,123.47a7.68,7.68,0,0,1-2.56-5.88,7.79,7.79,0,0,1,2.56-6,10.22,10.22,0,0,1,13.11,0,7.83,7.83,0,0,1,2.56,6,7.71,7.71,0,0,1-2.56,5.88,10.22,10.22,0,0,1-13.11,0Zm14.23,7.59v50.12H448.12V131.06Z" transform="translate(-0.96 -9.33)"/><path class="cls-1" d="M490.6,168.51h21.74v12.67H473.45V169l20.84-25.23H473.63V131.06h38.26v12.22Z" transform="translate(-0.96 -9.33)"/><path class="cls-1" d="M536.76,168.51H558.5v12.67H519.61V169l20.84-25.23H519.79V131.06h38.26v12.22Z" transform="translate(-0.96 -9.33)"/><path class="cls-1" d="M569.68,123.47a7.68,7.68,0,0,1-2.56-5.88,7.79,7.79,0,0,1,2.56-6,10.22,10.22,0,0,1,13.11,0,7.79,7.79,0,0,1,2.56,6,7.68,7.68,0,0,1-2.56,5.88,10.22,10.22,0,0,1-13.11,0Zm14.23,7.59v50.12H568.55V131.06Z" transform="translate(-0.96 -9.33)"/></g><g id="Andrea"><path class="cls-1" d="M292.13,87.94H268.6l-3.77,11.13H248.75l22.81-63h17.78l22.81,63H295.9Zm-3.95-11.86L280.36,53l-7.72,23.08Z" transform="translate(-0.96 -9.33)"/><path class="cls-1" d="M363.66,54.12q5.25,5.72,5.25,15.67V99.07H353.65V71.86c0-3.35-.87-6-2.61-7.81a10.19,10.19,0,0,0-14,0c-1.74,1.85-2.6,4.46-2.6,7.81V99.07H319.07V49h15.36V55.6a16.22,16.22,0,0,1,6.28-5.25,20,20,0,0,1,8.9-1.93Q358.4,48.42,363.66,54.12Z" transform="translate(-0.96 -9.33)"/><path class="cls-1" d="M379.47,60.36a21.77,21.77,0,0,1,7.94-9,20.83,20.83,0,0,1,11.23-3.14,19.73,19.73,0,0,1,9,2.07,16.46,16.46,0,0,1,6.42,5.56V32.61h15.36V99.07H414.09V91.89a15.75,15.75,0,0,1-6.15,5.75,19.4,19.4,0,0,1-9.3,2.15,20.53,20.53,0,0,1-11.23-3.19,22,22,0,0,1-7.94-9.07,30.15,30.15,0,0,1-2.92-13.6A30,30,0,0,1,379.47,60.36Zm31.43,4.58a10.8,10.8,0,0,0-15.54,0c-2.12,2.19-3.19,5.19-3.19,9s1.07,6.87,3.19,9.11a10.7,10.7,0,0,0,15.54,0q3.18-3.33,3.19-9.07T410.9,64.94Z" transform="translate(-0.96 -9.33)"/><path class="cls-1" d="M462.67,50.8a17.37,17.37,0,0,1,9-2.38V64.68h-4.23q-5.74,0-8.62,2.46t-2.87,8.67V99.07H440.58V49h15.36v8.35A20.29,20.29,0,0,1,462.67,50.8Z" transform="translate(-0.96 -9.33)"/><path class="cls-1" d="M526,77.7H491.23a10.44,10.44,0,0,0,3,7.14,9.23,9.23,0,0,0,6.51,2.47q5.75,0,8-4.85h16.34a22.56,22.56,0,0,1-4.53,8.89,22.87,22.87,0,0,1-8.22,6.2,26.54,26.54,0,0,1-11.05,2.24,26.92,26.92,0,0,1-13.11-3.14,22.37,22.37,0,0,1-9-9A27.69,27.69,0,0,1,476,74a28.16,28.16,0,0,1,3.19-13.66,22.15,22.15,0,0,1,8.94-9,27.11,27.11,0,0,1,13.2-3.14,26.84,26.84,0,0,1,12.93,3A22,22,0,0,1,523.07,60a26.55,26.55,0,0,1,3.19,13.21A39.25,39.25,0,0,1,526,77.7Zm-15.45-8.53a7.92,7.92,0,0,0-2.69-6.29,9.91,9.91,0,0,0-6.74-2.34,9.73,9.73,0,0,0-6.51,2.25,10,10,0,0,0-3.28,6.38Z" transform="translate(-0.96 -9.33)"/><path class="cls-1" d="M534.21,60.36a21.77,21.77,0,0,1,7.94-9,20.83,20.83,0,0,1,11.23-3.14,19.29,19.29,0,0,1,9.3,2.16,15.89,15.89,0,0,1,6.15,5.65V49h15.35V99.07H568.83V92a16.71,16.71,0,0,1-6.24,5.66,19.4,19.4,0,0,1-9.3,2.15,20.37,20.37,0,0,1-11.14-3.19,22,22,0,0,1-7.94-9.07,30.15,30.15,0,0,1-2.92-13.6A30,30,0,0,1,534.21,60.36Zm31.43,4.58a10.8,10.8,0,0,0-15.54,0c-2.12,2.19-3.19,5.19-3.19,9S548,80.8,550.1,83a10.7,10.7,0,0,0,15.54,0q3.18-3.33,3.19-9.07T565.64,64.94Z" transform="translate(-0.96 -9.33)"/></g><g id="A"><path id="A-2" data-name="A" class="cls-2" d="M194.43,157.28l-10.15-10.14-9.84-9.85-5.39-5.38-18.39-18.39L126.88,89.74,117,79.89,103.11,66h0L89.18,79.89l-9.85,9.85L55.55,113.52,37.16,131.91l-5.39,5.38-9.85,9.85L11.78,157.28A102.36,102.36,0,0,0,31.9,184.71l4-3.94,19.36-19.36.34-.34,5,5,14.74,14.74,4.08,4.08,23.77,23.77h0l23.77-23.77,4.08-4.08L145.7,166l5-5,.34.34,19.36,19.36,3.95,3.94A102.57,102.57,0,0,0,194.43,157.28ZM117,147.14,103.1,161.07,89.18,147.14l-9.85-9.85,23.77-23.77,23.78,23.77Z" transform="translate(-0.96 -9.33)"/></g><g id="C"><path id="C-2" data-name="C" class="cls-2" d="M128.22,12.45c-.86-.22-1.74-.43-2.61-.63l-1.46-.31c-1.06-.23-2.12-.43-3.18-.62l-1.46-.24c-1-.18-2-.31-3-.45l-.44-.06c-1.25-.16-2.51-.29-3.78-.4l-.72-.06q-1.87-.15-3.78-.24l-.66,0c-1.33-.05-2.65-.08-4-.08h0c-1.33,0-2.66,0-4,.08l-.66,0c-1.27.06-2.53.14-3.79.24L94,9.74c-1.27.11-2.54.24-3.8.4l-.43.06c-1,.14-2,.26-3,.43l-1.53.26c-1.07.19-2.14.4-3.2.62l-1.43.31c-.9.2-1.8.42-2.7.64a102.19,102.19,0,0,0-77,99c0,2.93.13,5.83.37,8.7L8,113.52,31.77,89.74l9.85-9.85.92-.92A69.19,69.19,0,0,1,70.21,51.3a68.06,68.06,0,0,1,11.75-5l1.1-.34a69.35,69.35,0,0,1,40.09,0l1.1.34a68.06,68.06,0,0,1,11.75,5A69.19,69.19,0,0,1,163.67,79l.92.92,9.85,9.85,23.77,23.78,6.67,6.66c.24-2.87.37-5.77.37-8.7A102.18,102.18,0,0,0,128.22,12.45Z" transform="translate(-0.96 -9.33)"/></g></svg>