<svg xmlns="http://www.w3.org/2000/svg" viewBox="0 0 590.14 226.27"><defs><style>.cls-1,.cls-2{font-size:89.81px;font-family:Poppins-Bold, Poppins;font-weight:700;}.cls-1,.cls-2,.cls-3{fill:#fff;}.cls-1{letter-spacing:0.02em;}.cls-3{fill-rule:evenodd;}</style></defs><g id="Capizzi"><text class="cls-1" transform="translate(246.36 171.85)">Capizzi</text></g><g id="Andrea"><text class="cls-2" transform="translate(246.36 89.74)">Andrea</text></g><g id="A"><path id="A-2" data-name="A" class="cls-3" d="M194.43,157.28l-10.15-10.14-9.84-9.85-5.39-5.38-18.39-18.39L126.88,89.74,117,79.89,103.11,66h0L89.18,79.89l-9.85,9.85L55.55,113.52,37.16,131.91l-5.39,5.38-9.85,9.85L11.78,157.28A102.36,102.36,0,0,0,31.9,184.71l4-3.94,19.36-19.36.34-.34,5,5,14.74,14.74,4.08,4.08,23.77,23.77h0l23.77-23.77,4.08-4.08L145.7,166l5-5,.34.34,19.36,19.36,3.95,3.94A102.57,102.57,0,0,0,194.43,157.28ZM117,147.14,103.1,161.07,89.18,147.14l-9.85-9.85,23.77-23.77,23.78,23.77Z" transform="translate(-0.96 -9.33)"/></g><g id="C"><path id="C-2" data-name="C" class="cls-3" d="M128.22,12.45c-.86-.22-1.74-.43-2.61-.63l-1.46-.31c-1.06-.23-2.12-.43-3.18-.62l-1.46-.24c-1-.18-2-.31-3-.45l-.44-.06c-1.25-.16-2.51-.29-3.78-.4l-.72-.06q-1.87-.15-3.78-.24l-.66,0c-1.33-.05-2.65-.08-4-.08h0c-1.33,0-2.66,0-4,.08l-.66,0c-1.27.06-2.53.14-3.79.24L94,9.74c-1.27.11-2.54.24-3.8.4l-.43.06c-1,.14-2,.26-3,.43l-1.53.26c-1.07.19-2.14.4-3.2.62l-1.43.31c-.9.2-1.8.42-2.7.64a102.19,102.19,0,0,0-77,99c0,2.93.13,5.83.37,8.7L8,113.52,31.77,89.74l9.85-9.85.92-.92A69.19,69.19,0,0,1,70.21,51.3a68.06,68.06,0,0,1,11.75-5l1.1-.34a69.35,69.35,0,0,1,40.09,0l1.1.34a68.06,68.06,0,0,1,11.75,5A69.19,69.19,0,0,1,163.67,79l.92.92,9.85,9.85,23.77,23.78,6.67,6.66c.24-2.87.37-5.77.37-8.7A102.18,102.18,0,0,0,128.22,12.45Z" transform="translate(-0.96 -9.33)"/></g></svg>