<svg id="path" xmlns="http://www.w3.org/2000/svg" viewBox="0 0 719.19 198.28"><defs><style></style></defs><path id="path-2" data-name="path" class="cls-1" d="M70,159.1,98.44,196h-21l-26-33.91H17.93V196H.34V87.87H52a51.69,51.69,0,0,1,17.78,2.9,35.7,35.7,0,0,1,13.06,8,34.75,34.75,0,0,1,7.82,11.77A38,38,0,0,1,93.32,125a36.87,36.87,0,0,1-6,20.83A34.44,34.44,0,0,1,70,159.1Zm-.81-48.78q-6.39-6-16.31-6H17.93v41.27h35q9.91,0,16.31-6a20,20,0,0,0,0-29.31Zm146.72,59.73a54.75,54.75,0,0,1-20.46,20.6,58.85,58.85,0,0,1-58,0A54.75,54.75,0,0,1,117,170.05a57.66,57.66,0,0,1,8.88-68.36A54.66,54.66,0,0,1,144,89.61a59.16,59.16,0,0,1,45,0A54.8,54.8,0,0,1,207,101.69a57.12,57.12,0,0,1,11.85,18,57.85,57.85,0,0,1-3,50.32Zm-15.3-47.84a39.1,39.1,0,0,0-14-14.75,38.76,38.76,0,0,0-40.3,0,39,39,0,0,0-14,14.75,41,41,0,0,0,0,38.94,38.74,38.74,0,0,0,14,14.71,39,39,0,0,0,40.3,0,38.85,38.85,0,0,0,14-14.71,41,41,0,0,0,0-38.94ZM345,170.05a54.75,54.75,0,0,1-20.46,20.6,58.85,58.85,0,0,1-58,0,54.72,54.72,0,0,1-20.45-20.6A57.69,57.69,0,0,1,255,101.69a54.76,54.76,0,0,1,18.05-12.08,59.16,59.16,0,0,1,45,0,54.7,54.7,0,0,1,18.06,12.08,57,57,0,0,1,11.85,18,57.85,57.85,0,0,1-3,50.32Zm-15.3-47.84a39,39,0,0,0-14-14.75,38.74,38.74,0,0,0-40.29,0,39,39,0,0,0-14,14.75,41,41,0,0,0,0,38.94,38.7,38.7,0,0,0,14,14.71,39,39,0,0,0,40.29,0,38.77,38.77,0,0,0,14-14.71,41,41,0,0,0,0-38.94ZM467.9,196H443.41l-53-47.85V196H372.66V87.87h17.75v47.92l49.36-47.92h23.47l-55.32,54,60,54.2Zm12.78,0V87.87h17.13V196Zm129.79-16.34V196H525.55V87.87h84.92v16.34H543.06v29.65h55.32V150H543.06v29.65ZM657,128.28a63.88,63.88,0,0,0,9.45,2.68q5.35,1.11,11.24,2.12t11.78,2.21a64.08,64.08,0,0,1,11.23,3.37,42.56,42.56,0,0,1,9.46,5.23,21.53,21.53,0,0,1,6.54,8.09,26.43,26.43,0,0,1,2.45,11.69q0,15.26-11.32,24.42t-30.76,9.18a87.05,87.05,0,0,1-28-4.38A75,75,0,0,1,627,181.47l10-13.86q19.46,12.85,40.14,12.86a34.87,34.87,0,0,0,11-1.59,18.44,18.44,0,0,0,7.32-4.14,17.82,17.82,0,0,0,3.76-5.19,12.58,12.58,0,0,0,1.2-5.26,9.54,9.54,0,0,0-2-6,13,13,0,0,0-5.39-4,61.51,61.51,0,0,0-7.94-2.63,79.34,79.34,0,0,0-9.61-1.9q-5.07-.69-10.46-1.82t-10.46-2.4a42.73,42.73,0,0,1-9.61-3.68,37.7,37.7,0,0,1-7.94-5.53,21.8,21.8,0,0,1-5.39-8.09,30.51,30.51,0,0,1-2-11.31q0-14.09,11.54-22.41t29.68-8.32q27.36,0,45.41,13.31l-7.75,14.25a69.27,69.27,0,0,0-18.79-8.25,72.37,72.37,0,0,0-18.87-2.67q-10.15,0-16.5,4.07t-6.36,10.64a9.37,9.37,0,0,0,2.44,6.54,16.51,16.51,0,0,0,6.55,4.22Z"/><path id="path-3" data-name="path" class="cls-1" d="M29.92,8V64.92H20.83V8H0V0H50.75V8Zm94.32,56.94V35.21H91.39V64.92H82.31V0h9.08V27.14h32.85V0h9.18V64.92Zm90.94-8.07v8.07h-43V0H213.8V8H181.23V27.41h30.65v7.8H181.23V56.85Z"/></svg>